# xmcd CD database file
#
# Track frame offsets:
#	150
#	19872
#	33640
#	54937
#	76440
#	89292
#	112315
#	129092
#	148795
#	170440
#	192110
#	210202
#	232155
#	244735
#
# Disc length: 3595 seconds
#
# Revision: 0
# Processed by: cddbd v1.5.1PL0 Copyright (c) Steve Scherf et al.
# Submitted via: CDex 1.51
#
DISCID=bb0e090e
DTITLE=Rabbit - RABBIT ?
DYEAR=1992
DGENRE=Hard Rock
TTITLE0=HOLD YOUR HAPPINESS
TTITLE1=7 DAYS
TTITLE2=HANDMADE ROMANCE
TTITLE3=LOVE STAGE
TTITLE4=CAMPFIRE
TTITLE5=DREAMIN'
TTITLE6=WOLF MAN
TTITLE7=GIRL'S BATTLE ROYAL
TTITLE8=SILENT HEAVEN
TTITLE9=T.L.A
TTITLE10=HOMESICK
TTITLE11=VANITY
TTITLE12=CHILDFOOD
TTITLE13=THANK YOU MY GIRL (Album Version)
EXTD=YEAR: 1992
EXTT0=
EXTT1=
EXTT2=
EXTT3=
EXTT4=
EXTT5=
EXTT6=
EXTT7=
EXTT8=
EXTT9=
EXTT10=
EXTT11=
EXTT12=
EXTT13=
PLAYORDER=
